<?xml version="1.0" encoding="UTF-8"?>
<svg xmlns="http://www.w3.org/2000/svg" id="Layer_1" data-name="Layer 1" viewBox="0 0 512 512" width="512" height="512"><path d="M122.826,291.914a6.008,6.008,0,0,0,5.868-7.282,68.913,68.913,0,0,1,13.092-57.3,67.526,67.526,0,0,1,24.72-19.66,6,6,0,1,0-5.035-10.892,79.557,79.557,0,0,0-29.14,23.162,80.88,80.88,0,0,0-15.361,67.252A6,6,0,0,0,122.826,291.914Z"/><path d="M182.419,202.556a5.976,5.976,0,0,0,.982-.081,66.156,66.156,0,0,1,8.824-.85,6,6,0,0,0-.348-12,78.288,78.288,0,0,0-10.427,1.006,6,6,0,0,0,.969,11.921Z"/><path d="M256,379.514a34,34,0,1,0-34-34A34.039,34.039,0,0,0,256,379.514Zm0-56a22,22,0,1,1-22,22A22.025,22.025,0,0,1,256,323.514Z"/><path d="M283,418H229a6,6,0,0,0,0,12h54a6,6,0,0,0,0-12Z"/><path d="M283,438H229a6,6,0,0,0,0,12h54a6,6,0,0,0,0-12Z"/><path d="M283,398H229a6,6,0,0,0,0,12h54a6,6,0,0,0,0-12Z"/><path d="M133.04,501.523A5.791,5.791,0,0,0,138.9,506H373.1a5.791,5.791,0,0,0,5.862-4.477L425.432,288.8a107.967,107.967,0,0,0-20.526-89.825,105.378,105.378,0,0,0-80.148-40.708c-.055,0-.111.013-.165.013l-12.5-.011A12.109,12.109,0,0,1,300,146.277V67h4.229A5.436,5.436,0,0,0,310,61.455V21.514A15.415,15.415,0,0,0,294.229,6H217.771A15.415,15.415,0,0,0,202,21.514V61.455A5.436,5.436,0,0,0,207.771,67H212v79.277a12.116,12.116,0,0,1-12.1,12l-12.439.018-.193,0a105.441,105.441,0,0,0-80.163,40.739A107.837,107.837,0,0,0,86.576,288.8ZM368.267,494H143.733l-4.742-21H373.009ZM214,21.514c0-2.206,1.565-3.514,3.771-3.514h76.458c2.206,0,3.771,1.308,3.771,3.514V55H214ZM288,67v41.31a57.672,57.672,0,0,1-64,0V67ZM116.549,206.426a93.449,93.449,0,0,1,70.96-36.131l12.412-.018a24.133,24.133,0,0,0,24.079-24V122.2a69.344,69.344,0,0,0,64,0v24.081a24.133,24.133,0,0,0,24.079,24l12.355.018a93.509,93.509,0,0,1,70.989,36.131,96.389,96.389,0,0,1,18.269,80.053L375.629,461H325V289.649A5.649,5.649,0,0,0,319.351,284H193.489A6.508,6.508,0,0,0,187,290.489V329a6,6,0,0,0,12,0V296H313V461H199V363a6,6,0,0,0-12,0v98H136.371L98.293,286.479A96.383,96.383,0,0,1,116.549,206.426Z"/></svg>
